<?xml version="1.0" encoding="UTF-8" standalone="no"?>
<svg
   xmlns:dc="http://purl.org/dc/elements/1.1/"
   xmlns:cc="http://creativecommons.org/ns#"
   xmlns:rdf="http://www.w3.org/1999/02/22-rdf-syntax-ns#"
   xmlns:svg="http://www.w3.org/2000/svg"
   xmlns="http://www.w3.org/2000/svg"
   xmlns:sodipodi="http://sodipodi.sourceforge.net/DTD/sodipodi-0.dtd"
   xmlns:inkscape="http://www.inkscape.org/namespaces/inkscape"
   width="500pt"
   height="500pt"
   viewBox="0 0 500 500"
   version="1.1"
   id="svg2"
   inkscape:version="0.91 r13725"
   sodipodi:docname="logo.svg">
  <metadata
     id="metadata100">
    <rdf:RDF>
      <cc:Work
         rdf:about="">
        <dc:format>image/svg+xml</dc:format>
        <dc:type
           rdf:resource="http://purl.org/dc/dcmitype/StillImage" />
      </cc:Work>
    </rdf:RDF>
  </metadata>
  <defs
     id="defs98" />
  <sodipodi:namedview
     pagecolor="#ffffff"
     bordercolor="#666666"
     borderopacity="1"
     objecttolerance="10"
     gridtolerance="10"
     guidetolerance="10"
     inkscape:pageopacity="0"
     inkscape:pageshadow="2"
     inkscape:window-width="1920"
     inkscape:window-height="1016"
     id="namedview96"
     showgrid="false"
     inkscape:zoom="1.0680141"
     inkscape:cx="489.24224"
     inkscape:cy="306.7301"
     inkscape:window-x="0"
     inkscape:window-y="27"
     inkscape:window-maximized="1"
     inkscape:current-layer="svg2" />
  <path
     fill="#535353"
     d=" M 178.01 81.19 C 194.11 77.32 210.57 74.55 227.15 74.23 C 190.46 84.41 155.96 102.40 126.43 126.40 C 89.68 156.29 60.72 196.41 46.61 241.82 C 35.70 276.49 34.05 314.15 42.70 349.51 C 49.17 376.65 61.66 402.26 78.67 424.34 C 52.23 405.30 30.52 379.37 17.79 349.27 C 3.54 316.08 0.32 278.37 8.46 243.20 C 16.93 205.45 37.50 170.95 64.92 143.88 C 95.91 113.09 135.71 91.68 178.01 81.19 Z"
     id="path6" />
  <path
     fill="#535353"
     d=" M 215.12 137.44 C 223.94 135.56 232.98 135.16 241.97 134.89 C 252.75 134.96 264.01 136.02 273.58 141.39 C 279.82 144.83 284.48 150.99 285.83 158.01 C 287.59 166.28 286.97 175.75 281.67 182.66 C 278.45 186.92 273.73 189.67 268.97 191.89 C 278.43 203.58 285.86 216.77 292.45 230.25 C 284.46 230.16 276.47 230.25 268.48 230.20 C 261.89 218.41 255.35 206.49 246.91 195.89 C 243.42 195.89 239.93 195.89 236.44 195.89 C 236.47 207.33 236.41 218.77 236.47 230.21 C 229.37 230.21 222.26 230.22 215.15 230.21 C 215.20 199.29 215.26 168.36 215.12 137.44 Z"
     id="path8" />
  <path
     fill="#535353"
     d=" M 150.13 135.92 C 171.20 135.92 192.28 135.92 213.35 135.92 C 213.30 141.90 213.33 147.88 213.34 153.86 C 199.35 153.87 185.36 153.86 171.37 153.87 C 171.39 160.44 171.43 167.00 171.33 173.57 C 183.79 173.60 196.24 173.56 208.69 173.59 C 208.60 179.54 208.60 185.50 208.69 191.45 C 196.24 191.46 183.78 191.43 171.33 191.46 C 171.47 204.38 171.33 217.30 171.41 230.21 C 164.30 230.21 157.20 230.22 150.09 230.21 C 150.19 198.78 150.11 167.35 150.13 135.92 Z"
     id="path10" />
  <path
     fill="#535353"
     d=" M 292.70 135.92 C 313.99 135.92 335.28 135.92 356.58 135.92 C 356.57 141.90 356.55 147.87 356.60 153.85 C 342.40 153.88 328.21 153.85 314.01 153.87 C 314.06 160.01 314.07 166.16 314.01 172.30 C 326.59 172.32 339.17 172.27 351.75 172.33 C 351.67 178.14 351.67 183.95 351.74 189.76 C 339.16 189.80 326.59 189.76 314.01 189.78 C 314.07 197.31 314.07 204.84 314.01 212.36 C 329.24 212.38 344.46 212.36 359.68 212.38 C 359.60 218.32 359.61 224.27 359.67 230.21 C 337.37 230.21 315.07 230.22 292.77 230.21 C 292.62 198.78 292.75 167.35 292.70 135.92 Z"
     id="path12" />
  <path
     fill="#535353"
     d=" M 361.93 135.93 C 383.21 135.92 404.50 135.92 425.79 135.93 C 425.78 141.90 425.75 147.87 425.82 153.84 C 411.62 153.90 397.42 153.85 383.22 153.87 C 383.24 160.01 383.28 166.16 383.18 172.30 C 395.77 172.33 408.37 172.26 420.96 172.34 C 420.85 178.14 420.86 183.94 420.95 189.74 C 408.37 189.82 395.78 189.75 383.19 189.78 C 383.26 197.31 383.29 204.84 383.17 212.36 C 398.42 212.40 413.66 212.33 428.91 212.40 C 428.79 218.33 428.82 224.27 428.88 230.21 C 406.56 230.22 384.24 230.21 361.93 230.21 C 361.93 198.78 361.91 167.35 361.93 135.93 Z"
     id="path14" />
  <path
     fill="#fefdfd"
     d=" M 236.40 153.46 C 243.96 153.02 252.08 152.36 259.08 155.84 C 266.97 159.59 266.57 173.11 258.53 176.47 C 251.62 179.59 243.81 178.77 236.43 178.93 C 236.44 170.44 236.49 161.94 236.40 153.46 Z"
     id="path16" />
  <path
     fill="#e06438"
     d=" M 94.64 242.65 C 105.76 234.17 120.38 232.19 133.99 232.94 C 145.41 233.31 156.55 236.68 166.74 241.74 C 163.85 249.36 161.10 257.03 158.31 264.69 C 147.17 258.89 134.28 256.05 121.81 258.31 C 118.29 258.98 114.43 260.23 112.46 263.46 C 109.75 268.04 110.67 274.64 115.05 277.89 C 121.66 283.14 130.14 284.90 137.79 288.08 C 147.67 292.16 158.32 296.14 165.31 304.65 C 171.81 312.48 173.36 323.21 172.66 333.08 C 172.01 342.39 167.69 351.54 160.17 357.23 C 150.75 364.49 138.52 366.59 126.92 367.11 C 110.44 367.78 93.43 365.30 78.76 357.39 C 81.65 349.75 84.24 342.02 87.04 334.35 C 95.50 338.44 104.56 341.58 114.01 342.10 C 121.79 342.48 130.20 343.16 137.33 339.40 C 143.97 335.86 144.53 325.68 139.28 320.69 C 134.95 316.63 129.26 314.48 123.85 312.27 C 112.23 307.89 99.48 304.54 90.49 295.43 C 76.10 281.23 78.60 254.62 94.64 242.65 Z"
     id="path22" />
  <path
     fill="#e06438"
     d=" M 221.05 237.51 C 232.58 235.38 244.30 234.61 256.00 234.36 C 274.56 233.98 294.34 236.19 310.07 246.89 C 323.35 255.79 331.18 271.14 333.07 286.77 C 335.25 304.89 333.66 324.62 322.91 339.98 C 313.43 353.94 297.19 361.77 280.90 364.45 C 261.13 367.83 240.79 366.33 221.12 363.00 C 221.08 321.17 221.21 279.34 221.05 237.51 Z"
     id="path24" />
  <path
     fill="#e06438"
     d=" M 179.16 235.84 C 188.87 235.84 198.59 235.85 208.31 235.83 C 208.31 278.75 208.28 321.66 208.32 364.58 C 198.58 364.57 188.84 364.61 179.11 364.55 C 179.27 321.65 179.17 278.74 179.16 235.84 Z"
     id="path26" />
  <path
     fill="#e06438"
     d=" M 341.63 235.83 C 370.66 235.85 399.69 235.84 428.73 235.84 C 428.70 243.98 428.67 252.12 428.75 260.26 C 409.41 260.28 390.08 260.26 370.75 260.27 C 370.77 268.65 370.78 277.04 370.75 285.42 C 387.91 285.42 405.07 285.42 422.23 285.42 C 422.21 293.35 422.21 301.28 422.23 309.22 C 405.07 309.22 387.91 309.22 370.75 309.21 C 370.77 319.56 370.78 329.91 370.75 340.27 C 391.49 340.29 412.24 340.23 432.98 340.30 C 432.90 348.38 432.89 356.47 432.98 364.55 C 402.53 364.61 372.07 364.57 341.61 364.58 C 341.66 321.66 341.63 278.75 341.63 235.83 Z"
     id="path28" />
  <path
     fill="#fefdfd"
     d=" M 250.09 259.59 C 262.82 258.84 276.59 258.24 288.01 264.89 C 297.11 270.13 301.95 280.42 303.31 290.50 C 304.40 299.61 304.29 309.13 301.09 317.84 C 298.17 326.14 292.07 333.44 283.95 337.04 C 273.43 341.91 261.47 341.65 250.15 340.94 C 250.12 313.82 250.24 286.71 250.09 259.59 Z"
     id="path30" />
</svg>
