<?xml version="1.0" encoding="UTF-8" standalone="no"?>
<svg
   xmlns:dc="http://purl.org/dc/elements/1.1/"
   xmlns:cc="http://creativecommons.org/ns#"
   xmlns:rdf="http://www.w3.org/1999/02/22-rdf-syntax-ns#"
   xmlns:svg="http://www.w3.org/2000/svg"
   xmlns="http://www.w3.org/2000/svg"
   xmlns:sodipodi="http://sodipodi.sourceforge.net/DTD/sodipodi-0.dtd"
   xmlns:inkscape="http://www.inkscape.org/namespaces/inkscape"
   width="500pt"
   height="500pt"
   viewBox="0 0 500 500"
   version="1.1"
   id="svg3474"
   inkscape:version="0.91 r13725"
   sodipodi:docname="freeside_full.svg">
  <metadata
     id="metadata3572">
    <rdf:RDF>
      <cc:Work
         rdf:about="">
        <dc:format>image/svg+xml</dc:format>
        <dc:type
           rdf:resource="http://purl.org/dc/dcmitype/StillImage" />
      </cc:Work>
    </rdf:RDF>
  </metadata>
  <defs
     id="defs3570" />
  <sodipodi:namedview
     pagecolor="#ffffff"
     bordercolor="#666666"
     borderopacity="1"
     objecttolerance="10"
     gridtolerance="10"
     guidetolerance="10"
     inkscape:pageopacity="0"
     inkscape:pageshadow="2"
     inkscape:window-width="1920"
     inkscape:window-height="1016"
     id="namedview3568"
     showgrid="false"
     inkscape:zoom="1.3232"
     inkscape:cx="193.84825"
     inkscape:cy="312.5"
     inkscape:window-x="0"
     inkscape:window-y="27"
     inkscape:window-maximized="1"
     inkscape:current-layer="svg3474" />
  <path
     fill="#535353"
     d=" M 178.01 81.19 C 194.11 77.32 210.57 74.55 227.15 74.23 C 190.46 84.41 155.96 102.40 126.43 126.40 C 89.68 156.29 60.72 196.41 46.61 241.82 C 35.70 276.49 34.05 314.15 42.70 349.51 C 49.17 376.65 61.66 402.26 78.67 424.34 C 52.23 405.30 30.52 379.37 17.79 349.27 C 3.54 316.08 0.32 278.37 8.46 243.20 C 16.93 205.45 37.50 170.95 64.92 143.88 C 95.91 113.09 135.71 91.68 178.01 81.19 Z"
     id="path3478" />
  <path
     fill="#535353"
     d=" M 215.12 137.44 C 223.94 135.56 232.98 135.16 241.97 134.89 C 252.75 134.96 264.01 136.02 273.58 141.39 C 279.82 144.83 284.48 150.99 285.83 158.01 C 287.59 166.28 286.97 175.75 281.67 182.66 C 278.45 186.92 273.73 189.67 268.97 191.89 C 278.43 203.58 285.86 216.77 292.45 230.25 C 284.46 230.16 276.47 230.25 268.48 230.20 C 261.89 218.41 255.35 206.49 246.91 195.89 C 243.42 195.89 239.93 195.89 236.44 195.89 C 236.47 207.33 236.41 218.77 236.47 230.21 C 229.37 230.21 222.26 230.22 215.15 230.21 C 215.20 199.29 215.26 168.36 215.12 137.44 Z"
     id="path3480" />
  <path
     fill="#535353"
     d=" M 150.13 135.92 C 171.20 135.92 192.28 135.92 213.35 135.92 C 213.30 141.90 213.33 147.88 213.34 153.86 C 199.35 153.87 185.36 153.86 171.37 153.87 C 171.39 160.44 171.43 167.00 171.33 173.57 C 183.79 173.60 196.24 173.56 208.69 173.59 C 208.60 179.54 208.60 185.50 208.69 191.45 C 196.24 191.46 183.78 191.43 171.33 191.46 C 171.47 204.38 171.33 217.30 171.41 230.21 C 164.30 230.21 157.20 230.22 150.09 230.21 C 150.19 198.78 150.11 167.35 150.13 135.92 Z"
     id="path3482" />
  <path
     fill="#535353"
     d=" M 292.70 135.92 C 313.99 135.92 335.28 135.92 356.58 135.92 C 356.57 141.90 356.55 147.87 356.60 153.85 C 342.40 153.88 328.21 153.85 314.01 153.87 C 314.06 160.01 314.07 166.16 314.01 172.30 C 326.59 172.32 339.17 172.27 351.75 172.33 C 351.67 178.14 351.67 183.95 351.74 189.76 C 339.16 189.80 326.59 189.76 314.01 189.78 C 314.07 197.31 314.07 204.84 314.01 212.36 C 329.24 212.38 344.46 212.36 359.68 212.38 C 359.60 218.32 359.61 224.27 359.67 230.21 C 337.37 230.21 315.07 230.22 292.77 230.21 C 292.62 198.78 292.75 167.35 292.70 135.92 Z"
     id="path3484" />
  <path
     fill="#535353"
     d=" M 361.93 135.93 C 383.21 135.92 404.50 135.92 425.79 135.93 C 425.78 141.90 425.75 147.87 425.82 153.84 C 411.62 153.90 397.42 153.85 383.22 153.87 C 383.24 160.01 383.28 166.16 383.18 172.30 C 395.77 172.33 408.37 172.26 420.96 172.34 C 420.85 178.14 420.86 183.94 420.95 189.74 C 408.37 189.82 395.78 189.75 383.19 189.78 C 383.26 197.31 383.29 204.84 383.17 212.36 C 398.42 212.40 413.66 212.33 428.91 212.40 C 428.79 218.33 428.82 224.27 428.88 230.21 C 406.56 230.22 384.24 230.21 361.93 230.21 C 361.93 198.78 361.91 167.35 361.93 135.93 Z"
     id="path3486" />
  <path
     fill="#fefdfd"
     d=" M 236.40 153.46 C 243.96 153.02 252.08 152.36 259.08 155.84 C 266.97 159.59 266.57 173.11 258.53 176.47 C 251.62 179.59 243.81 178.77 236.43 178.93 C 236.44 170.44 236.49 161.94 236.40 153.46 Z"
     id="path3488" />
  <path
     fill="#e06438"
     d=" M 440.45 177.05 C 440.51 171.01 440.49 164.97 440.44 158.93 C 448.37 165.99 456.36 172.99 463.79 180.59 C 472.55 171.64 482.82 164.26 493.77 158.22 C 493.67 164.01 493.68 169.80 493.75 175.59 C 485.47 180.94 477.01 186.27 470.33 193.62 C 478.14 193.66 485.95 193.61 493.76 193.64 C 493.67 198.67 493.69 203.71 493.75 208.74 C 468.35 208.78 442.95 208.79 417.55 208.73 C 416.73 203.70 416.00 198.65 415.07 193.64 C 429.95 193.64 444.82 193.62 459.70 193.66 C 453.35 188.05 447.04 182.38 440.45 177.05 Z"
     id="path3490" />
  <path
     fill="#e06438"
     d=" M 440.45 214.67 C 457.63 214.68 474.81 214.65 491.99 214.69 C 494.12 223.64 495.48 232.91 494.60 242.12 C 494.10 247.29 492.01 252.59 487.78 255.82 C 482.77 259.72 476.15 260.44 470.01 260.47 C 460.15 260.45 450.29 260.46 440.44 260.45 C 440.50 255.44 440.50 250.44 440.44 245.43 C 450.28 245.36 460.14 245.51 469.99 245.38 C 473.73 245.10 478.32 244.91 480.76 241.59 C 482.78 237.97 481.70 233.64 481.60 229.71 C 467.88 229.68 454.16 229.72 440.45 229.69 C 440.49 224.69 440.50 219.68 440.45 214.67 Z"
     id="path3492" />
  <path
     fill="#e06438"
     d=" M 94.64 242.65 C 105.76 234.17 120.38 232.19 133.99 232.94 C 145.41 233.31 156.55 236.68 166.74 241.74 C 163.85 249.36 161.10 257.03 158.31 264.69 C 147.17 258.89 134.28 256.05 121.81 258.31 C 118.29 258.98 114.43 260.23 112.46 263.46 C 109.75 268.04 110.67 274.64 115.05 277.89 C 121.66 283.14 130.14 284.90 137.79 288.08 C 147.67 292.16 158.32 296.14 165.31 304.65 C 171.81 312.48 173.36 323.21 172.66 333.08 C 172.01 342.39 167.69 351.54 160.17 357.23 C 150.75 364.49 138.52 366.59 126.92 367.11 C 110.44 367.78 93.43 365.30 78.76 357.39 C 81.65 349.75 84.24 342.02 87.04 334.35 C 95.50 338.44 104.56 341.58 114.01 342.10 C 121.79 342.48 130.20 343.16 137.33 339.40 C 143.97 335.86 144.53 325.68 139.28 320.69 C 134.95 316.63 129.26 314.48 123.85 312.27 C 112.23 307.89 99.48 304.54 90.49 295.43 C 76.10 281.23 78.60 254.62 94.64 242.65 Z"
     id="path3494" />
  <path
     fill="#e06438"
     d=" M 221.05 237.51 C 232.58 235.38 244.30 234.61 256.00 234.36 C 274.56 233.98 294.34 236.19 310.07 246.89 C 323.35 255.79 331.18 271.14 333.07 286.77 C 335.25 304.89 333.66 324.62 322.91 339.98 C 313.43 353.94 297.19 361.77 280.90 364.45 C 261.13 367.83 240.79 366.33 221.12 363.00 C 221.08 321.17 221.21 279.34 221.05 237.51 Z"
     id="path3496" />
  <path
     fill="#e06438"
     d=" M 179.16 235.84 C 188.87 235.84 198.59 235.85 208.31 235.83 C 208.31 278.75 208.28 321.66 208.32 364.58 C 198.58 364.57 188.84 364.61 179.11 364.55 C 179.27 321.65 179.17 278.74 179.16 235.84 Z"
     id="path3498" />
  <path
     fill="#e06438"
     d=" M 341.63 235.83 C 370.66 235.85 399.69 235.84 428.73 235.84 C 428.70 243.98 428.67 252.12 428.75 260.26 C 409.41 260.28 390.08 260.26 370.75 260.27 C 370.77 268.65 370.78 277.04 370.75 285.42 C 387.91 285.42 405.07 285.42 422.23 285.42 C 422.21 293.35 422.21 301.28 422.23 309.22 C 405.07 309.22 387.91 309.22 370.75 309.21 C 370.77 319.56 370.78 329.91 370.75 340.27 C 391.49 340.29 412.24 340.23 432.98 340.30 C 432.90 348.38 432.89 356.47 432.98 364.55 C 402.53 364.61 372.07 364.57 341.61 364.58 C 341.66 321.66 341.63 278.75 341.63 235.83 Z"
     id="path3500" />
  <path
     d=" M 250.09 259.59 C 262.82 258.84 276.59 258.24 288.01 264.89 C 297.11 270.13 301.95 280.42 303.31 290.50 C 304.40 299.61 304.29 309.13 301.09 317.84 C 298.17 326.14 292.07 333.44 283.95 337.04 C 273.43 341.91 261.47 341.65 250.15 340.94 C 250.12 313.82 250.24 286.71 250.09 259.59 Z"
     id="path3502"
     fill="#fefdfd" />
  <path
     fill="#e06438"
     d=" M 482.44 262.61 C 489.00 259.97 496.39 266.18 494.89 273.08 C 494.33 280.36 484.42 283.61 479.36 278.66 C 474.24 274.25 475.85 264.63 482.44 262.61 Z"
     id="path3504" />
  <path
     fill="#e06438"
     d=" M 460.29 280.17 C 468.71 278.60 477.99 279.86 485.13 284.79 C 498.89 294.41 498.40 318.27 484.03 327.10 C 472.01 334.58 454.12 333.40 444.74 322.20 C 437.96 314.01 437.20 301.56 442.37 292.37 C 446.02 285.76 452.96 281.51 460.29 280.17 Z"
     id="path3506" />
  <path
     fill="#fefdfd"
     d=" M 461.38 295.52 C 467.17 294.46 473.84 294.59 478.73 298.26 C 483.69 302.05 483.09 310.73 477.63 313.79 C 471.62 317.18 463.89 317.22 457.63 314.48 C 453.63 312.75 451.33 308.21 452.15 303.94 C 452.66 299.31 457.09 296.28 461.38 295.52 Z"
     id="path3508" />
  <path
     fill="#e06438"
     d=" M 480.10 333.10 C 484.26 332.47 488.39 331.72 492.55 331.11 C 495.11 338.61 495.74 346.75 494.29 354.55 C 492.66 362.52 486.88 369.70 479.02 372.18 C 467.63 375.83 453.40 374.29 445.32 364.69 C 437.49 355.75 437.75 342.49 441.81 331.93 C 445.86 332.94 449.91 334.01 453.95 335.09 C 452.33 340.40 450.92 346.40 453.29 351.72 C 455.75 356.74 461.74 358.72 467.01 358.62 C 472.01 358.68 478.03 357.44 480.56 352.61 C 483.33 346.42 481.91 339.36 480.10 333.10 Z"
     id="path3510" />
  <path
     fill="#e06438"
     d=" M 482.26 373.21 C 486.64 371.61 492.22 373.37 494.08 377.87 C 497.06 383.62 492.83 391.87 486.00 391.56 C 480.29 392.16 475.54 386.52 476.37 381.03 C 476.71 377.63 478.99 374.37 482.26 373.21 Z"
     id="path3512" />
  <path
     fill="#e06438"
     d=" M 132.87 375.93 C 134.47 375.68 136.07 375.43 137.68 375.20 C 137.71 381.16 137.49 387.14 137.70 393.11 C 137.61 394.75 139.31 395.66 140.10 396.89 C 139.90 398.01 139.69 399.14 139.48 400.27 C 137.78 399.75 136.01 399.37 134.42 398.57 C 132.93 396.74 132.85 394.29 132.84 392.06 C 132.83 386.68 132.89 381.30 132.87 375.93 Z"
     id="path3514" />
  <path
     fill="#e06438"
     d=" M 200.80 375.93 C 202.40 375.68 204.00 375.43 205.60 375.19 C 205.57 383.21 205.55 391.23 205.59 399.25 C 201.79 399.67 197.65 400.74 194.06 398.92 C 189.32 396.25 189.03 389.10 192.06 385.06 C 194.14 382.25 197.89 382.66 200.97 382.81 C 200.88 380.51 200.83 378.22 200.80 375.93 Z"
     id="path3516" />
  <path
     fill="#e06438"
     d=" M 356.91 375.91 C 358.49 375.66 360.08 375.42 361.67 375.19 C 361.65 381.82 361.56 388.46 361.73 395.09 C 362.34 395.37 363.56 395.91 364.17 396.19 C 363.91 397.55 363.64 398.91 363.37 400.27 C 360.97 399.50 357.41 399.21 357.11 396.02 C 356.53 389.34 357.13 382.61 356.91 375.91 Z"
     id="path3518" />
  <path
     fill="#e06438"
     d=" M 125.25 375.93 C 126.85 375.68 128.45 375.44 130.05 375.21 C 130.05 381.78 130.03 388.36 130.06 394.93 C 130.67 395.27 131.89 395.94 132.51 396.27 C 132.25 397.60 132.00 398.94 131.74 400.28 C 129.83 399.61 127.64 399.34 126.10 397.92 C 125.25 396.46 125.32 394.70 125.25 393.07 C 125.23 387.35 125.31 381.64 125.25 375.93 Z"
     id="path3520" />
  <path
     fill="#e06438"
     d=" M 276.19 376.02 C 278.88 373.59 282.63 378.41 279.65 380.45 C 276.96 383.09 272.70 377.91 276.19 376.02 Z"
     id="path3522" />
  <path
     fill="#e06438"
     d=" M 87.25 377.76 C 88.94 377.75 90.63 377.75 92.32 377.75 C 92.31 380.52 92.29 383.29 92.29 386.07 C 94.99 386.07 97.70 386.07 100.41 386.07 C 100.40 383.30 100.38 380.52 100.35 377.76 C 102.04 377.75 103.73 377.75 105.42 377.75 C 105.38 385.03 105.38 392.31 105.43 399.59 C 103.73 399.57 102.03 399.56 100.33 399.56 C 100.38 396.48 100.40 393.40 100.43 390.32 C 97.70 390.32 94.97 390.32 92.24 390.34 C 92.29 393.42 92.31 396.50 92.33 399.59 C 90.63 399.57 88.93 399.56 87.23 399.55 C 87.34 392.28 87.31 385.02 87.25 377.76 Z"
     id="path3524" />
  <path
     fill="#e06438"
     d=" M 148.44 378.43 C 152.07 376.34 156.44 377.50 160.21 378.56 C 159.70 379.81 159.19 381.07 158.69 382.33 C 156.20 381.91 153.69 381.61 151.17 381.55 C 150.89 382.22 150.33 383.54 150.06 384.21 C 152.64 385.60 155.43 386.59 157.99 388.04 C 161.97 390.11 162.05 396.97 157.91 398.92 C 153.76 400.94 149.02 399.82 144.81 398.59 C 145.30 397.26 145.79 395.94 146.28 394.63 C 149.33 395.20 153.72 397.26 155.93 394.07 C 156.81 392.59 154.68 392.07 153.85 391.40 C 151.25 389.94 147.90 389.41 146.11 386.82 C 144.50 383.99 145.53 380.00 148.44 378.43 Z"
     id="path3526" />
  <path
     fill="#e06438"
     d=" M 259.72 377.75 C 261.41 377.75 263.11 377.75 264.81 377.76 C 264.73 383.61 264.78 389.45 264.75 395.30 C 267.92 395.29 271.09 395.29 274.27 395.30 C 274.28 396.37 274.29 398.51 274.30 399.58 C 269.43 399.58 264.57 399.58 259.71 399.58 C 259.74 392.30 259.74 385.02 259.72 377.75 Z"
     id="path3528" />
  <path
     fill="#e06438"
     d=" M 344.28 378.23 C 348.08 376.50 352.36 377.46 356.18 378.62 C 355.67 379.96 355.17 381.32 354.69 382.68 C 351.79 382.11 348.43 380.75 345.76 382.70 C 342.52 385.40 342.41 390.81 345.03 393.97 C 347.71 396.64 351.78 395.28 355.02 394.73 C 355.50 396.05 355.97 397.38 356.45 398.71 C 351.76 400.04 346.17 401.08 341.94 397.99 C 335.96 393.00 336.88 381.46 344.28 378.23 Z"
     id="path3530" />
  <path
     fill="#e06438"
     d=" M 161.90 378.86 C 163.49 378.61 165.08 378.36 166.68 378.13 C 166.66 379.76 166.64 381.40 166.63 383.04 C 168.49 383.03 170.36 383.04 172.22 383.04 C 172.22 384.32 172.22 385.61 172.22 386.90 C 170.33 386.90 168.45 386.90 166.57 386.91 C 166.62 389.70 166.54 392.52 167.01 395.29 C 168.77 395.80 170.63 395.74 172.45 395.81 C 172.67 397.00 172.89 398.20 173.12 399.40 C 170.19 399.66 166.88 400.59 164.22 398.87 C 162.59 397.89 162.13 395.91 162.07 394.15 C 161.76 389.06 161.93 383.96 161.90 378.86 Z"
     id="path3532" />
  <path
     fill="#e06438"
     d=" M 395.30 378.87 C 396.91 378.61 398.52 378.35 400.14 378.11 C 400.10 379.70 400.07 381.30 400.04 382.91 C 401.94 382.97 403.84 383.04 405.74 383.11 C 405.74 384.36 405.74 385.61 405.74 386.87 C 403.84 386.88 401.94 386.90 400.04 386.92 C 400.09 389.54 399.93 392.18 400.32 394.79 C 401.70 396.42 404.12 395.52 405.97 395.82 C 406.06 396.74 406.24 398.58 406.33 399.51 C 403.71 399.68 400.94 400.33 398.42 399.34 C 396.34 398.46 395.39 396.17 395.38 394.03 C 395.19 388.98 395.40 383.92 395.30 378.87 Z"
     id="path3534" />
  <path
     fill="#e06438"
     d=" M 242.00 378.85 C 243.60 378.60 245.21 378.37 246.82 378.14 C 246.79 379.77 246.77 381.40 246.75 383.04 C 248.59 383.04 250.43 383.04 252.28 383.04 C 252.28 384.32 252.28 385.61 252.28 386.90 C 250.42 386.89 248.56 386.90 246.71 386.91 C 246.75 389.60 246.62 392.32 247.04 395.01 C 248.59 396.21 250.70 395.59 252.51 395.83 C 252.69 397.02 252.87 398.23 253.06 399.43 C 249.46 399.91 243.91 400.92 242.47 396.43 C 241.49 390.64 242.30 384.70 242.00 378.85 Z"
     id="path3536" />
  <path
     fill="#e06438"
     d=" M 108.05 383.07 C 109.63 383.05 111.20 383.05 112.78 383.05 C 112.83 386.97 112.42 390.96 113.20 394.83 C 114.54 395.57 116.05 395.92 117.51 396.37 C 117.67 391.90 117.59 387.44 117.61 382.97 C 119.18 382.97 120.75 382.97 122.33 382.97 C 122.33 388.39 122.33 393.80 122.33 399.22 C 117.96 399.62 111.81 401.51 108.99 396.95 C 107.32 392.55 108.31 387.67 108.05 383.07 Z"
     id="path3538" />
  <path
     fill="#e06438"
     d=" M 173.97 383.03 C 175.49 383.03 177.01 383.04 178.53 383.05 C 178.57 386.68 178.27 390.33 178.75 393.93 C 178.92 396.20 181.72 395.75 183.25 396.29 C 183.32 391.88 183.30 387.47 183.27 383.07 C 184.88 383.05 186.49 383.04 188.11 383.04 C 188.09 388.42 188.08 393.81 188.11 399.20 C 183.77 399.60 177.87 401.45 174.83 397.25 C 172.81 392.81 174.08 387.73 173.97 383.03 Z"
     id="path3540" />
  <path
     fill="#e06438"
     d=" M 210.83 383.88 C 214.25 381.41 219.77 382.33 221.80 386.16 C 222.73 388.22 222.83 390.53 223.21 392.74 C 219.22 392.91 215.22 392.85 211.23 392.98 C 213.69 396.23 217.71 396.14 221.34 395.41 C 221.54 396.69 221.74 397.97 221.94 399.26 C 218.37 399.76 214.44 400.71 211.07 398.90 C 205.83 395.87 205.88 387.17 210.83 383.88 Z"
     id="path3542" />
  <path
     fill="#e06438"
     d=" M 225.08 383.42 C 229.43 382.81 235.53 381.07 238.43 385.53 C 240.24 389.95 239.09 394.93 239.42 399.58 C 237.82 399.57 236.22 399.57 234.62 399.58 C 234.65 395.38 234.77 391.16 234.22 386.98 C 232.76 386.87 231.31 386.76 229.85 386.66 C 229.83 390.96 229.83 395.26 229.93 399.55 C 228.29 399.55 226.67 399.55 225.04 399.55 C 225.16 394.17 225.13 388.79 225.08 383.42 Z"
     id="path3544" />
  <path
     fill="#e06438"
     d=" M 275.51 383.04 C 277.09 383.03 278.68 383.03 280.27 383.04 C 280.27 388.55 280.26 394.06 280.29 399.58 C 278.77 399.57 277.25 399.58 275.73 399.59 C 275.51 394.07 275.48 388.56 275.51 383.04 Z"
     id="path3546" />
  <path
     fill="#e06438"
     d=" M 283.27 383.49 C 287.67 382.46 294.49 381.14 296.83 386.26 C 297.97 390.59 297.25 395.15 297.45 399.58 C 295.84 399.57 294.24 399.57 292.64 399.58 C 292.40 395.52 293.45 391.16 291.90 387.31 C 290.58 386.90 289.24 386.59 287.88 386.37 C 287.81 390.77 287.84 395.17 287.91 399.57 C 286.29 399.56 284.66 399.55 283.04 399.54 C 283.27 394.19 282.86 388.83 283.27 383.49 Z"
     id="path3548" />
  <path
     fill="#e06438"
     d=" M 300.06 383.05 C 301.64 383.05 303.23 383.05 304.82 383.06 C 304.86 386.99 304.47 390.97 305.14 394.86 C 306.50 395.56 308.03 395.87 309.48 396.35 C 309.63 391.88 309.56 387.41 309.58 382.94 C 311.14 382.98 312.70 383.03 314.27 383.08 C 314.36 388.46 314.36 393.84 314.27 399.22 C 309.90 399.62 303.74 401.52 300.95 396.94 C 299.27 392.54 300.34 387.65 300.06 383.05 Z"
     id="path3550" />
  <path
     fill="#e06438"
     d=" M 315.44 382.95 C 317.12 382.95 318.81 382.97 320.51 382.98 C 321.64 384.67 322.76 386.37 323.90 388.06 C 324.94 386.35 325.98 384.65 327.04 382.95 C 328.70 382.97 330.35 382.99 332.01 383.03 C 330.12 385.67 328.23 388.32 326.29 390.93 C 328.47 393.72 330.50 396.62 332.47 399.56 C 330.70 399.57 328.93 399.58 327.17 399.59 C 326.03 397.69 324.89 395.79 323.73 393.90 C 322.51 395.69 321.44 397.59 320.03 399.24 C 318.44 399.64 316.78 399.63 315.17 399.79 C 316.89 396.69 318.92 393.77 321.09 390.97 C 319.13 388.35 317.22 385.69 315.44 382.95 Z"
     id="path3552" />
  <path
     fill="#e06438"
     d=" M 364.35 383.05 C 365.93 383.04 367.51 383.04 369.11 383.04 C 369.19 386.90 368.73 390.82 369.53 394.63 C 370.51 395.89 372.40 395.74 373.78 396.32 C 373.96 391.90 373.89 387.47 373.89 383.04 C 375.47 383.04 377.06 383.04 378.66 383.05 C 378.64 388.44 378.64 393.83 378.65 399.22 C 374.54 399.55 369.38 401.25 366.06 398.00 C 363.14 393.62 364.76 387.98 364.35 383.05 Z"
     id="path3554" />
  <path
     fill="#e06438"
     d=" M 382.81 383.90 C 385.65 381.69 389.45 382.83 392.71 383.08 C 392.52 384.01 392.12 385.86 391.93 386.78 C 389.69 386.76 386.86 385.63 385.25 387.80 C 387.71 389.43 390.76 390.19 392.86 392.35 C 394.03 394.63 393.51 397.88 391.03 399.05 C 387.77 400.65 384.02 399.76 380.59 399.35 C 380.77 398.05 380.96 396.75 381.16 395.45 C 384.00 395.86 386.90 396.05 389.74 395.45 C 387.47 393.94 384.97 392.84 382.72 391.32 C 380.25 389.66 380.49 385.58 382.81 383.90 Z"
     id="path3556" />
  <path
     fill="#e06438"
     d=" M 410.55 383.59 C 413.71 381.67 418.38 382.31 420.58 385.41 C 422.16 387.53 421.99 390.32 422.36 392.82 C 418.40 392.88 414.45 392.85 410.50 392.97 C 412.93 396.34 416.99 396.07 420.63 395.46 C 420.79 396.74 420.96 398.01 421.13 399.29 C 417.34 399.81 413.00 400.83 409.62 398.43 C 404.99 394.90 405.46 386.52 410.55 383.59 Z"
     id="path3558" />
  <path
     fill="#e06438"
     d=" M 424.28 383.70 C 427.87 382.78 431.57 382.49 435.26 382.86 C 434.99 384.23 434.73 385.61 434.46 386.99 C 432.64 386.89 430.83 386.81 429.03 386.74 C 429.04 391.02 429.05 395.30 429.05 399.57 C 427.44 399.56 425.83 399.56 424.23 399.55 C 424.33 394.27 424.29 388.98 424.28 383.70 Z"
     id="path3560" />
  <path
     fill="#fefdfd"
     d=" M 214.62 386.42 C 216.65 386.21 217.79 388.18 219.01 389.44 C 216.41 389.58 213.81 389.56 211.21 389.42 C 212.32 388.39 213.35 387.25 214.62 386.42 Z"
     id="path3562" />
  <path
     fill="#fefdfd"
     d=" M 413.58 386.62 C 415.75 385.77 416.95 388.21 418.30 389.42 C 415.69 389.56 413.07 389.55 410.46 389.42 C 411.48 388.46 412.40 387.38 413.58 386.62 Z"
     id="path3564" />
  <path
     fill="#fefdfd"
     d=" M 196.36 387.18 C 197.80 386.86 199.29 386.74 200.77 386.64 C 200.87 389.86 200.87 393.08 200.76 396.30 C 198.91 395.70 196.20 395.88 195.39 393.70 C 194.75 391.57 194.68 388.87 196.36 387.18 Z"
     id="path3566" />
</svg>
